<?xml version="1.0" encoding="utf-8"?>
<!-- Generator: Adobe Illustrator 23.0.2, SVG Export Plug-In . SVG Version: 6.00 Build 0)  -->
<svg version="1.1" id="Capa_1" xmlns="http://www.w3.org/2000/svg" xmlns:xlink="http://www.w3.org/1999/xlink" x="0px" y="0px"
	 viewBox="0 0 64 64" style="enable-background:new 0 0 64 64;" xml:space="preserve">
<style type="text/css">
	.st0{fill:#FF8000;}
	.st1{fill:#FF8000;stroke:#FF8000;stroke-width:2;stroke-miterlimit:10;}
</style>
<path class="st0" d="M33.3,6C19,5.3,6.8,16.3,6,30.7S16.3,57.2,30.7,58S57.2,47.7,58,33.3C58.7,19,47.7,6.8,33.3,6z M54,33.1
	c-0.3,5.1-2.3,10-5.8,13.8L18.8,14.4c9.7-7.3,23.5-5.3,30.8,4.4C52.7,22.9,54.2,28,54,33.1z M10,30.9c0.3-5.1,2.3-10,5.8-13.8
	l29.3,32.5c-9.7,7.3-23.5,5.3-30.8-4.4C11.3,41.1,9.8,36,10,30.9z"/>
<path class="st1" d="M24.6,47.2l-7.3-6.9c-0.5-0.5-0.5-1.2,0-1.7c0.5-0.5,1.2-0.5,1.7,0l5.2,5l-0.3-17.1c-0.1-5.2,4.1-9.5,9.4-9.6
	s9.7,4,9.8,9.2c0.1,3.4,0.1,6.8,0.2,10.2c0.2,1-0.5,1.7-1.1,1.8c-0.6,0-1.4-0.7-1.3-1.7c-0.1-3.4-0.1-6.8-0.2-10.2
	c-0.1-3.9-3.3-7-7.3-6.9s-7.1,3.3-7.1,7.2l0.3,17.1l5.1-5.1c0.5-0.5,1.2-0.5,1.7,0c0.5,0.5,0.5,1.2,0,1.7l-7.1,7.2
	C25.7,47.2,25.1,47.2,24.6,47.2z"/>
</svg>
